<svg width="24" height="24" viewBox="0 0 24 24" fill="none" xmlns="http://www.w3.org/2000/svg">
<path fill-rule="evenodd" clip-rule="evenodd" d="M9.43502 4.34158C9.97887 3.445 10.9514 2.89746 12 2.89746C13.0486 2.89746 14.0212 3.445 14.565 4.34158L14.5679 4.34633L23.0379 18.4863L23.046 18.5001C23.5791 19.4232 23.5822 20.5599 23.0544 21.4859C22.5265 22.412 21.5469 22.9884 20.481 23.0001L20.47 23.0003L3.51903 23.0002C2.45315 22.9885 1.47353 22.412 0.94567 21.4859C0.41781 20.5599 0.420993 19.4232 0.95403 18.5001L0.962153 18.4863L9.43502 4.34158ZM11.1462 5.37684L2.6827 19.506C2.50833 19.8127 2.50837 20.1888 2.68322 20.4955C2.85842 20.8029 3.1829 20.9947 3.53642 21.0002H20.4636C20.8171 20.9947 21.1416 20.8029 21.3168 20.4955C21.4917 20.1888 21.4917 19.8127 21.3174 19.5061L12.855 5.37883C12.8546 5.37817 12.8542 5.3775 12.8538 5.37684C12.6723 5.07916 12.3488 4.89746 12 4.89746C11.6513 4.89746 11.3277 5.07916 11.1462 5.37684Z" fill="#EB6F70"/>
<path fill-rule="evenodd" clip-rule="evenodd" d="M12 9C12.5523 9 13 9.44772 13 10V14C13 14.5523 12.5523 15 12 15C11.4477 15 11 14.5523 11 14V10C11 9.44772 11.4477 9 12 9Z" fill="#EB6F70"/>
<path d="M13 18C13 18.5523 12.5523 19 12 19C11.4477 19 11 18.5523 11 18C11 17.4477 11.4477 17 12 17C12.5523 17 13 17.4477 13 18Z" fill="#EB6F70"/>
</svg>
