<svg width="24" height="25" viewBox="0 0 24 25" fill="none" xmlns="http://www.w3.org/2000/svg">
<path fill-rule="evenodd" clip-rule="evenodd" d="M16.6677 9.70227C16.9536 10.002 16.9424 10.4767 16.6427 10.7626L11.1396 16.0126C10.8496 16.2893 10.3934 16.2891 10.1037 16.0122L7.35684 13.3872C7.05738 13.101 7.0466 12.6263 7.33278 12.3268C7.61895 12.0273 8.0937 12.0166 8.39317 12.3027L10.6223 14.433L15.6073 9.67731C15.907 9.39139 16.3817 9.40256 16.6677 9.70227Z" fill="#6BC497"/>
<path fill-rule="evenodd" clip-rule="evenodd" d="M12 4.21997C7.44365 4.21997 3.75 7.91362 3.75 12.47C3.75 17.0263 7.44365 20.72 12 20.72C16.5563 20.72 20.25 17.0263 20.25 12.47C20.25 7.91362 16.5563 4.21997 12 4.21997ZM2.25 12.47C2.25 7.08519 6.61522 2.71997 12 2.71997C17.3848 2.71997 21.75 7.08519 21.75 12.47C21.75 17.8547 17.3848 22.22 12 22.22C6.61522 22.22 2.25 17.8547 2.25 12.47Z" fill="#6BC497"/>
</svg>
